<mxfile host="Electron" modified="2024-12-19T13:04:13.064Z" agent="Mozilla/5.0 (Windows NT 10.0; Win64; x64) AppleWebKit/537.36 (KHTML, like Gecko) draw.io/24.6.1 Chrome/124.0.6367.207 Electron/30.0.6 Safari/537.36" etag="xjeVzEMsOF4NXjie9xhG" version="24.6.1" type="device">
  <diagram name="Страница — 1" id="RO4nKCfjK870htSYkQyF">
    <mxGraphModel dx="863" dy="505" grid="1" gridSize="10" guides="1" tooltips="1" connect="1" arrows="1" fold="1" page="1" pageScale="1" pageWidth="2339" pageHeight="3300" math="0" shadow="0">
      <root>
        <mxCell id="0" />
        <mxCell id="1" parent="0" />
        <mxCell id="LRmnucPghJvPrqPuA8nq-1" value="" style="rounded=0;whiteSpace=wrap;html=1;rotation=90;" vertex="1" parent="1">
          <mxGeometry x="585.56" y="225.75" width="96.5" height="30" as="geometry" />
        </mxCell>
        <mxCell id="LRmnucPghJvPrqPuA8nq-2" value="Пользователь" style="shape=umlActor;verticalLabelPosition=bottom;verticalAlign=top;html=1;outlineConnect=0;" vertex="1" parent="1">
          <mxGeometry x="90" y="60" width="30" height="60" as="geometry" />
        </mxCell>
        <mxCell id="LRmnucPghJvPrqPuA8nq-3" value="Заказ" style="rounded=0;whiteSpace=wrap;html=1;" vertex="1" parent="1">
          <mxGeometry x="319.48" y="80" width="120" height="60" as="geometry" />
        </mxCell>
        <mxCell id="LRmnucPghJvPrqPuA8nq-4" value="Меню редактирование" style="rounded=0;whiteSpace=wrap;html=1;" vertex="1" parent="1">
          <mxGeometry x="573.8" y="80" width="120" height="60" as="geometry" />
        </mxCell>
        <mxCell id="LRmnucPghJvPrqPuA8nq-5" value="Главная страница" style="rounded=0;whiteSpace=wrap;html=1;" vertex="1" parent="1">
          <mxGeometry x="170" y="80" width="120" height="60" as="geometry" />
        </mxCell>
        <mxCell id="LRmnucPghJvPrqPuA8nq-6" value="" style="endArrow=none;dashed=1;html=1;rounded=0;" edge="1" parent="1">
          <mxGeometry width="50" height="50" relative="1" as="geometry">
            <mxPoint x="105.16" y="190" as="sourcePoint" />
            <mxPoint x="104.66" y="140" as="targetPoint" />
          </mxGeometry>
        </mxCell>
        <mxCell id="LRmnucPghJvPrqPuA8nq-7" value="" style="rounded=0;whiteSpace=wrap;html=1;rotation=90;" vertex="1" parent="1">
          <mxGeometry x="72.5" y="210" width="65" height="30" as="geometry" />
        </mxCell>
        <mxCell id="LRmnucPghJvPrqPuA8nq-8" value="" style="endArrow=block;html=1;rounded=0;endFill=1;" edge="1" parent="1">
          <mxGeometry width="50" height="50" relative="1" as="geometry">
            <mxPoint x="237" y="230" as="sourcePoint" />
            <mxPoint x="363" y="230" as="targetPoint" />
          </mxGeometry>
        </mxCell>
        <mxCell id="LRmnucPghJvPrqPuA8nq-9" value="2: Выбор заказа" style="edgeLabel;html=1;align=center;verticalAlign=middle;resizable=0;points=[];" vertex="1" connectable="0" parent="LRmnucPghJvPrqPuA8nq-8">
          <mxGeometry x="-0.0473" y="-2" relative="1" as="geometry">
            <mxPoint x="3" y="-22" as="offset" />
          </mxGeometry>
        </mxCell>
        <mxCell id="LRmnucPghJvPrqPuA8nq-10" value="" style="rounded=0;whiteSpace=wrap;html=1;rotation=-90;" vertex="1" parent="1">
          <mxGeometry x="319.87" y="249.61" width="119.22" height="30" as="geometry" />
        </mxCell>
        <mxCell id="LRmnucPghJvPrqPuA8nq-11" value="" style="endArrow=none;dashed=1;html=1;rounded=0;" edge="1" parent="1" source="LRmnucPghJvPrqPuA8nq-10">
          <mxGeometry width="50" height="50" relative="1" as="geometry">
            <mxPoint x="379.48" y="200" as="sourcePoint" />
            <mxPoint x="379.14" y="140" as="targetPoint" />
          </mxGeometry>
        </mxCell>
        <mxCell id="LRmnucPghJvPrqPuA8nq-12" value="" style="endArrow=none;dashed=1;html=1;rounded=0;" edge="1" parent="1">
          <mxGeometry width="50" height="50" relative="1" as="geometry">
            <mxPoint x="222.66" y="190" as="sourcePoint" />
            <mxPoint x="222.16" y="140" as="targetPoint" />
          </mxGeometry>
        </mxCell>
        <mxCell id="LRmnucPghJvPrqPuA8nq-13" value="" style="endArrow=block;html=1;rounded=0;endFill=1;entryX=0.577;entryY=0.917;entryDx=0;entryDy=0;entryPerimeter=0;" edge="1" parent="1">
          <mxGeometry width="50" height="50" relative="1" as="geometry">
            <mxPoint x="120" y="210" as="sourcePoint" />
            <mxPoint x="209.99" y="210.0050000000001" as="targetPoint" />
          </mxGeometry>
        </mxCell>
        <mxCell id="LRmnucPghJvPrqPuA8nq-14" value="1: Вход" style="edgeLabel;html=1;align=center;verticalAlign=middle;resizable=0;points=[];" vertex="1" connectable="0" parent="LRmnucPghJvPrqPuA8nq-13">
          <mxGeometry x="-0.0473" y="-2" relative="1" as="geometry">
            <mxPoint y="-12" as="offset" />
          </mxGeometry>
        </mxCell>
        <mxCell id="LRmnucPghJvPrqPuA8nq-15" value="" style="rounded=0;whiteSpace=wrap;html=1;rotation=90;" vertex="1" parent="1">
          <mxGeometry x="190" y="210" width="65" height="30" as="geometry" />
        </mxCell>
        <mxCell id="LRmnucPghJvPrqPuA8nq-16" value="" style="endArrow=none;dashed=1;html=1;rounded=0;" edge="1" parent="1">
          <mxGeometry width="50" height="50" relative="1" as="geometry">
            <mxPoint x="633.96" y="190" as="sourcePoint" />
            <mxPoint x="633.46" y="140" as="targetPoint" />
          </mxGeometry>
        </mxCell>
        <mxCell id="LRmnucPghJvPrqPuA8nq-17" value="" style="endArrow=block;html=1;rounded=0;endFill=1;exitX=0.75;exitY=1;exitDx=0;exitDy=0;entryX=0.449;entryY=0.994;entryDx=0;entryDy=0;entryPerimeter=0;" edge="1" parent="1" source="LRmnucPghJvPrqPuA8nq-10" target="LRmnucPghJvPrqPuA8nq-1">
          <mxGeometry width="50" height="50" relative="1" as="geometry">
            <mxPoint x="400.00000000000006" y="248.95000000000007" as="sourcePoint" />
            <mxPoint x="619" y="230" as="targetPoint" />
          </mxGeometry>
        </mxCell>
        <mxCell id="LRmnucPghJvPrqPuA8nq-18" value="3: Изменение заказа" style="edgeLabel;html=1;align=center;verticalAlign=middle;resizable=0;points=[];" vertex="1" connectable="0" parent="LRmnucPghJvPrqPuA8nq-17">
          <mxGeometry x="-0.0473" y="-2" relative="1" as="geometry">
            <mxPoint x="-2" y="-13" as="offset" />
          </mxGeometry>
        </mxCell>
        <mxCell id="LRmnucPghJvPrqPuA8nq-29" value="" style="endArrow=none;dashed=1;html=1;rounded=0;" edge="1" parent="1">
          <mxGeometry width="50" height="50" relative="1" as="geometry">
            <mxPoint x="105" y="520" as="sourcePoint" />
            <mxPoint x="104.5" y="260" as="targetPoint" />
          </mxGeometry>
        </mxCell>
        <mxCell id="LRmnucPghJvPrqPuA8nq-30" value="" style="endArrow=none;dashed=1;html=1;rounded=0;" edge="1" parent="1">
          <mxGeometry width="50" height="50" relative="1" as="geometry">
            <mxPoint x="222.5" y="520" as="sourcePoint" />
            <mxPoint x="222" y="259" as="targetPoint" />
          </mxGeometry>
        </mxCell>
        <mxCell id="LRmnucPghJvPrqPuA8nq-31" value="" style="endArrow=none;dashed=1;html=1;rounded=0;entryX=1;entryY=0.5;entryDx=0;entryDy=0;" edge="1" parent="1" target="LRmnucPghJvPrqPuA8nq-1">
          <mxGeometry width="50" height="50" relative="1" as="geometry">
            <mxPoint x="633.3" y="520" as="sourcePoint" />
            <mxPoint x="633.3" y="310" as="targetPoint" />
          </mxGeometry>
        </mxCell>
        <mxCell id="LRmnucPghJvPrqPuA8nq-32" value="" style="endArrow=none;dashed=1;html=1;rounded=0;entryX=0;entryY=0.5;entryDx=0;entryDy=0;" edge="1" parent="1" target="LRmnucPghJvPrqPuA8nq-10">
          <mxGeometry width="50" height="50" relative="1" as="geometry">
            <mxPoint x="379" y="520" as="sourcePoint" />
            <mxPoint x="378.98" y="330" as="targetPoint" />
          </mxGeometry>
        </mxCell>
        <mxCell id="LRmnucPghJvPrqPuA8nq-35" value="" style="endArrow=block;html=1;rounded=0;endFill=1;" edge="1" parent="1">
          <mxGeometry width="50" height="50" relative="1" as="geometry">
            <mxPoint x="620" y="274" as="sourcePoint" />
            <mxPoint x="395" y="274" as="targetPoint" />
          </mxGeometry>
        </mxCell>
        <mxCell id="LRmnucPghJvPrqPuA8nq-36" value="4: Обновление заказа" style="edgeLabel;html=1;align=center;verticalAlign=middle;resizable=0;points=[];" vertex="1" connectable="0" parent="LRmnucPghJvPrqPuA8nq-35">
          <mxGeometry x="-0.0473" y="-2" relative="1" as="geometry">
            <mxPoint x="-3" y="-9" as="offset" />
          </mxGeometry>
        </mxCell>
      </root>
    </mxGraphModel>
  </diagram>
</mxfile>
